<mxfile host="app.diagrams.net" modified="2023-08-17T11:39:47.704Z" agent="Mozilla/5.0 (Macintosh; Intel Mac OS X 10_15_7) AppleWebKit/605.1.15 (KHTML, like Gecko) Version/16.6 Safari/605.1.15" version="21.6.8" etag="8BeIGCVTVpJIfALyzH1J" type="github">
  <diagram name="第 1 页" id="el1TXaWYym-rRfzsBI-p">
    <mxGraphModel>
      <root>
        <mxCell id="0" />
        <mxCell id="1" parent="0" />
      </root>
    </mxGraphModel>
  </diagram>
</mxfile>
